<mxfile host="Electron" agent="Mozilla/5.0 (Macintosh; Intel Mac OS X 10_15_7) AppleWebKit/537.36 (KHTML, like Gecko) draw.io/28.0.6 Chrome/138.0.7204.100 Electron/37.2.3 Safari/537.36" version="28.0.6" pages="2">
  <diagram name="Seite-1" id="oJpWy25tFQ_xTXEzw57-">
    <mxGraphModel dx="946" dy="679" grid="1" gridSize="10" guides="1" tooltips="1" connect="1" arrows="1" fold="1" page="1" pageScale="1" pageWidth="827" pageHeight="1169" math="0" shadow="0">
      <root>
        <mxCell id="0" />
        <mxCell id="1" parent="0" />
        <mxCell id="8RRBLdp_uV9ntfK7UGuj-2" value="" style="rounded=0;whiteSpace=wrap;html=1;strokeColor=#B3B3B3;fillColor=none;" parent="1" vertex="1">
          <mxGeometry x="240" y="240" width="120" height="240" as="geometry" />
        </mxCell>
        <mxCell id="8RRBLdp_uV9ntfK7UGuj-5" value="" style="rounded=0;whiteSpace=wrap;html=1;strokeColor=#B3B3B3;fillColor=none;" parent="1" vertex="1">
          <mxGeometry x="360" y="240" width="120" height="240" as="geometry" />
        </mxCell>
        <mxCell id="8RRBLdp_uV9ntfK7UGuj-6" value="FPGA" style="text;html=1;align=center;verticalAlign=middle;whiteSpace=wrap;rounded=0;" parent="1" vertex="1">
          <mxGeometry x="240" y="210" width="60" height="30" as="geometry" />
        </mxCell>
        <mxCell id="8RRBLdp_uV9ntfK7UGuj-30" value="RAM&lt;div&gt;(single port)&lt;/div&gt;" style="whiteSpace=wrap;html=1;aspect=fixed;" parent="1" vertex="1">
          <mxGeometry x="500" y="240" width="80" height="80" as="geometry" />
        </mxCell>
        <mxCell id="8RRBLdp_uV9ntfK7UGuj-33" value="" style="endArrow=classic;startArrow=classic;html=1;rounded=0;entryX=0;entryY=0.75;entryDx=0;entryDy=0;exitX=0;exitY=0.5;exitDx=0;exitDy=0;shape=link;" parent="1" source="8RRBLdp_uV9ntfK7UGuj-83" target="8RRBLdp_uV9ntfK7UGuj-30" edge="1">
          <mxGeometry width="50" height="50" relative="1" as="geometry">
            <mxPoint x="500" y="405" as="sourcePoint" />
            <mxPoint x="440" y="330" as="targetPoint" />
            <Array as="points">
              <mxPoint x="450" y="380" />
              <mxPoint x="450" y="300" />
            </Array>
          </mxGeometry>
        </mxCell>
        <mxCell id="8RRBLdp_uV9ntfK7UGuj-34" value="PC" style="edgeLabel;html=1;align=center;verticalAlign=middle;resizable=0;points=[];" parent="8RRBLdp_uV9ntfK7UGuj-33" vertex="1" connectable="0">
          <mxGeometry x="-0.0428" relative="1" as="geometry">
            <mxPoint y="-43" as="offset" />
          </mxGeometry>
        </mxCell>
        <mxCell id="8RRBLdp_uV9ntfK7UGuj-35" value="SPI Controler" style="rounded=0;whiteSpace=wrap;html=1;" parent="1" vertex="1">
          <mxGeometry x="354" y="200" width="120" height="20" as="geometry" />
        </mxCell>
        <mxCell id="8RRBLdp_uV9ntfK7UGuj-36" value="" style="endArrow=none;html=1;rounded=0;exitX=0;exitY=0.75;exitDx=0;exitDy=0;entryX=0.25;entryY=1;entryDx=0;entryDy=0;" parent="1" target="8RRBLdp_uV9ntfK7UGuj-35" edge="1">
          <mxGeometry width="50" height="50" relative="1" as="geometry">
            <mxPoint x="500" y="435" as="sourcePoint" />
            <mxPoint x="490" y="300" as="targetPoint" />
            <Array as="points">
              <mxPoint x="384" y="435" />
            </Array>
          </mxGeometry>
        </mxCell>
        <mxCell id="8RRBLdp_uV9ntfK7UGuj-37" value="reconfigure" style="edgeLabel;html=1;align=center;verticalAlign=middle;resizable=0;points=[];" parent="8RRBLdp_uV9ntfK7UGuj-36" vertex="1" connectable="0">
          <mxGeometry x="-0.4658" y="-1" relative="1" as="geometry">
            <mxPoint x="8" as="offset" />
          </mxGeometry>
        </mxCell>
        <mxCell id="8RRBLdp_uV9ntfK7UGuj-38" value="" style="endArrow=none;html=1;rounded=0;entryX=0;entryY=0.5;entryDx=0;entryDy=0;shape=link;" parent="1" target="8RRBLdp_uV9ntfK7UGuj-30" edge="1">
          <mxGeometry width="50" height="50" relative="1" as="geometry">
            <mxPoint x="590" y="420" as="sourcePoint" />
            <mxPoint x="490" y="300" as="targetPoint" />
            <Array as="points">
              <mxPoint x="430" y="420" />
              <mxPoint x="430" y="280" />
            </Array>
          </mxGeometry>
        </mxCell>
        <mxCell id="8RRBLdp_uV9ntfK7UGuj-39" value="" style="endArrow=none;html=1;rounded=0;shape=link;" parent="1" edge="1">
          <mxGeometry width="50" height="50" relative="1" as="geometry">
            <mxPoint x="300" y="280" as="sourcePoint" />
            <mxPoint x="430" y="280" as="targetPoint" />
          </mxGeometry>
        </mxCell>
        <mxCell id="8RRBLdp_uV9ntfK7UGuj-40" value="" style="rounded=0;whiteSpace=wrap;html=1;" parent="1" vertex="1">
          <mxGeometry x="240" y="20" width="30" height="60" as="geometry" />
        </mxCell>
        <mxCell id="8RRBLdp_uV9ntfK7UGuj-41" value="" style="rounded=0;whiteSpace=wrap;html=1;" parent="1" vertex="1">
          <mxGeometry x="270" y="20" width="30" height="60" as="geometry" />
        </mxCell>
        <mxCell id="8RRBLdp_uV9ntfK7UGuj-42" value="" style="rounded=0;whiteSpace=wrap;html=1;" parent="1" vertex="1">
          <mxGeometry x="300" y="20" width="30" height="60" as="geometry" />
        </mxCell>
        <mxCell id="8RRBLdp_uV9ntfK7UGuj-43" value="" style="rounded=0;whiteSpace=wrap;html=1;" parent="1" vertex="1">
          <mxGeometry x="330" y="20" width="30" height="60" as="geometry" />
        </mxCell>
        <mxCell id="8RRBLdp_uV9ntfK7UGuj-44" value="" style="rounded=0;whiteSpace=wrap;html=1;" parent="1" vertex="1">
          <mxGeometry x="360" y="20" width="30" height="60" as="geometry" />
        </mxCell>
        <mxCell id="8RRBLdp_uV9ntfK7UGuj-45" value="" style="rounded=0;whiteSpace=wrap;html=1;" parent="1" vertex="1">
          <mxGeometry x="390" y="20" width="30" height="60" as="geometry" />
        </mxCell>
        <mxCell id="8RRBLdp_uV9ntfK7UGuj-46" value="" style="rounded=0;whiteSpace=wrap;html=1;" parent="1" vertex="1">
          <mxGeometry x="420" y="20" width="30" height="60" as="geometry" />
        </mxCell>
        <mxCell id="8RRBLdp_uV9ntfK7UGuj-47" value="" style="rounded=0;whiteSpace=wrap;html=1;" parent="1" vertex="1">
          <mxGeometry x="450" y="20" width="30" height="60" as="geometry" />
        </mxCell>
        <mxCell id="8RRBLdp_uV9ntfK7UGuj-48" value="" style="rounded=0;whiteSpace=wrap;html=1;" parent="1" vertex="1">
          <mxGeometry x="480" y="20" width="30" height="60" as="geometry" />
        </mxCell>
        <mxCell id="8RRBLdp_uV9ntfK7UGuj-49" value="" style="rounded=0;whiteSpace=wrap;html=1;" parent="1" vertex="1">
          <mxGeometry x="510" y="20" width="30" height="60" as="geometry" />
        </mxCell>
        <mxCell id="8RRBLdp_uV9ntfK7UGuj-50" value="" style="rounded=0;whiteSpace=wrap;html=1;" parent="1" vertex="1">
          <mxGeometry x="540" y="20" width="30" height="60" as="geometry" />
        </mxCell>
        <mxCell id="8RRBLdp_uV9ntfK7UGuj-51" value="" style="rounded=0;whiteSpace=wrap;html=1;" parent="1" vertex="1">
          <mxGeometry x="570" y="20" width="30" height="60" as="geometry" />
        </mxCell>
        <mxCell id="8RRBLdp_uV9ntfK7UGuj-52" value="" style="rounded=0;whiteSpace=wrap;html=1;" parent="1" vertex="1">
          <mxGeometry x="600" y="20" width="30" height="60" as="geometry" />
        </mxCell>
        <mxCell id="8RRBLdp_uV9ntfK7UGuj-53" value="" style="rounded=0;whiteSpace=wrap;html=1;" parent="1" vertex="1">
          <mxGeometry x="630" y="20" width="30" height="60" as="geometry" />
        </mxCell>
        <mxCell id="8RRBLdp_uV9ntfK7UGuj-54" value="" style="rounded=0;whiteSpace=wrap;html=1;" parent="1" vertex="1">
          <mxGeometry x="660" y="20" width="30" height="60" as="geometry" />
        </mxCell>
        <mxCell id="8RRBLdp_uV9ntfK7UGuj-55" value="" style="rounded=0;whiteSpace=wrap;html=1;" parent="1" vertex="1">
          <mxGeometry x="690" y="20" width="30" height="60" as="geometry" />
        </mxCell>
        <mxCell id="8RRBLdp_uV9ntfK7UGuj-56" value="SPI Peripheral" style="rounded=0;whiteSpace=wrap;html=1;" parent="1" vertex="1">
          <mxGeometry x="354" y="140" width="120" height="20" as="geometry" />
        </mxCell>
        <mxCell id="8RRBLdp_uV9ntfK7UGuj-57" value="" style="endArrow=none;html=1;rounded=0;entryX=0.5;entryY=1;entryDx=0;entryDy=0;exitX=0.5;exitY=0;exitDx=0;exitDy=0;shape=link;" parent="1" source="8RRBLdp_uV9ntfK7UGuj-35" target="8RRBLdp_uV9ntfK7UGuj-56" edge="1">
          <mxGeometry width="50" height="50" relative="1" as="geometry">
            <mxPoint x="440" y="240" as="sourcePoint" />
            <mxPoint x="490" y="190" as="targetPoint" />
          </mxGeometry>
        </mxCell>
        <mxCell id="8RRBLdp_uV9ntfK7UGuj-58" value="SPI" style="edgeLabel;html=1;align=center;verticalAlign=middle;resizable=0;points=[];" parent="8RRBLdp_uV9ntfK7UGuj-57" vertex="1" connectable="0">
          <mxGeometry x="-0.0542" y="-3" relative="1" as="geometry">
            <mxPoint x="13" as="offset" />
          </mxGeometry>
        </mxCell>
        <mxCell id="8RRBLdp_uV9ntfK7UGuj-61" value="" style="endArrow=none;html=1;rounded=0;exitX=0.625;exitY=0;exitDx=0;exitDy=0;exitPerimeter=0;shape=link;" parent="1" source="8RRBLdp_uV9ntfK7UGuj-2" edge="1">
          <mxGeometry width="50" height="50" relative="1" as="geometry">
            <mxPoint x="245" y="170" as="sourcePoint" />
            <mxPoint x="315" y="90" as="targetPoint" />
          </mxGeometry>
        </mxCell>
        <mxCell id="8RRBLdp_uV9ntfK7UGuj-62" value="FPGA&amp;nbsp;&lt;div&gt;configuration&lt;/div&gt;" style="edgeLabel;html=1;align=center;verticalAlign=middle;resizable=0;points=[];" parent="8RRBLdp_uV9ntfK7UGuj-61" vertex="1" connectable="0">
          <mxGeometry x="0.3698" relative="1" as="geometry">
            <mxPoint as="offset" />
          </mxGeometry>
        </mxCell>
        <mxCell id="8RRBLdp_uV9ntfK7UGuj-63" value="" style="rounded=0;whiteSpace=wrap;html=1;" parent="1" vertex="1">
          <mxGeometry x="240" y="80" width="480" height="20" as="geometry" />
        </mxCell>
        <mxCell id="8RRBLdp_uV9ntfK7UGuj-29" value="Bitstream storage" style="text;html=1;align=center;verticalAlign=middle;whiteSpace=wrap;rounded=0;" parent="1" vertex="1">
          <mxGeometry x="240" y="80" width="110" height="20" as="geometry" />
        </mxCell>
        <mxCell id="8RRBLdp_uV9ntfK7UGuj-64" value="" style="endArrow=none;html=1;rounded=0;entryX=0.5;entryY=1;entryDx=0;entryDy=0;exitX=0.5;exitY=0;exitDx=0;exitDy=0;shape=link;" parent="1" edge="1">
          <mxGeometry width="50" height="50" relative="1" as="geometry">
            <mxPoint x="413" y="140" as="sourcePoint" />
            <mxPoint x="413" y="100" as="targetPoint" />
          </mxGeometry>
        </mxCell>
        <mxCell id="8RRBLdp_uV9ntfK7UGuj-65" value="SPI" style="edgeLabel;html=1;align=center;verticalAlign=middle;resizable=0;points=[];" parent="8RRBLdp_uV9ntfK7UGuj-64" vertex="1" connectable="0">
          <mxGeometry x="-0.0542" y="-3" relative="1" as="geometry">
            <mxPoint x="13" as="offset" />
          </mxGeometry>
        </mxCell>
        <mxCell id="8RRBLdp_uV9ntfK7UGuj-66" value="" style="rounded=0;whiteSpace=wrap;html=1;fillColor=none;" parent="1" vertex="1">
          <mxGeometry x="500" y="360" width="290" height="350" as="geometry" />
        </mxCell>
        <mxCell id="8RRBLdp_uV9ntfK7UGuj-68" value="&lt;span style=&quot;float: none; color: rgb(0, 0, 0); display: inline !important;&quot;&gt;Tile&lt;/span&gt;&lt;span style=&quot;float: none; color: rgb(0, 0, 0); display: inline !important;&quot;&gt;&amp;nbsp;&lt;/span&gt;(CPU)" style="text;html=1;align=center;verticalAlign=middle;whiteSpace=wrap;rounded=0;" parent="1" vertex="1">
          <mxGeometry x="500" y="340" width="60" height="20" as="geometry" />
        </mxCell>
        <mxCell id="8RRBLdp_uV9ntfK7UGuj-69" value="" style="rounded=0;whiteSpace=wrap;html=1;" parent="1" vertex="1">
          <mxGeometry x="510" y="440" width="50" height="10" as="geometry" />
        </mxCell>
        <mxCell id="8RRBLdp_uV9ntfK7UGuj-70" value="" style="rounded=0;whiteSpace=wrap;html=1;" parent="1" vertex="1">
          <mxGeometry x="510" y="450" width="50" height="10" as="geometry" />
        </mxCell>
        <mxCell id="8RRBLdp_uV9ntfK7UGuj-71" value="" style="rounded=0;whiteSpace=wrap;html=1;" parent="1" vertex="1">
          <mxGeometry x="510" y="460" width="50" height="10" as="geometry" />
        </mxCell>
        <mxCell id="8RRBLdp_uV9ntfK7UGuj-72" value="" style="rounded=0;whiteSpace=wrap;html=1;" parent="1" vertex="1">
          <mxGeometry x="510" y="470" width="50" height="10" as="geometry" />
        </mxCell>
        <mxCell id="8RRBLdp_uV9ntfK7UGuj-77" value="" style="rounded=0;whiteSpace=wrap;html=1;" parent="1" vertex="1">
          <mxGeometry x="510" y="480" width="50" height="10" as="geometry" />
        </mxCell>
        <mxCell id="8RRBLdp_uV9ntfK7UGuj-78" value="" style="rounded=0;whiteSpace=wrap;html=1;" parent="1" vertex="1">
          <mxGeometry x="510" y="490" width="50" height="10" as="geometry" />
        </mxCell>
        <mxCell id="8RRBLdp_uV9ntfK7UGuj-79" value="" style="rounded=0;whiteSpace=wrap;html=1;" parent="1" vertex="1">
          <mxGeometry x="510" y="500" width="50" height="10" as="geometry" />
        </mxCell>
        <mxCell id="8RRBLdp_uV9ntfK7UGuj-80" value="" style="rounded=0;whiteSpace=wrap;html=1;" parent="1" vertex="1">
          <mxGeometry x="510" y="510" width="50" height="10" as="geometry" />
        </mxCell>
        <mxCell id="8RRBLdp_uV9ntfK7UGuj-81" value="regs" style="text;html=1;align=center;verticalAlign=middle;whiteSpace=wrap;rounded=0;" parent="1" vertex="1">
          <mxGeometry x="510" y="420" width="30" height="20" as="geometry" />
        </mxCell>
        <mxCell id="8RRBLdp_uV9ntfK7UGuj-82" value="instruction&amp;nbsp;&lt;div&gt;decode&lt;/div&gt;" style="rounded=0;whiteSpace=wrap;html=1;" parent="1" vertex="1">
          <mxGeometry x="590" y="410" width="70" height="30" as="geometry" />
        </mxCell>
        <mxCell id="8RRBLdp_uV9ntfK7UGuj-83" value="PC" style="rounded=0;whiteSpace=wrap;html=1;" parent="1" vertex="1">
          <mxGeometry x="540" y="370" width="60" height="20" as="geometry" />
        </mxCell>
        <mxCell id="8RRBLdp_uV9ntfK7UGuj-84" value="ALU" style="shape=trapezoid;perimeter=trapezoidPerimeter;whiteSpace=wrap;html=1;fixedSize=1;" parent="1" vertex="1">
          <mxGeometry x="600" y="470" width="90" height="20" as="geometry" />
        </mxCell>
        <mxCell id="8RRBLdp_uV9ntfK7UGuj-85" value="" style="shape=tape;whiteSpace=wrap;html=1;rotation=-90;" parent="1" vertex="1">
          <mxGeometry x="240" y="270" width="120" height="120" as="geometry" />
        </mxCell>
        <mxCell id="8RRBLdp_uV9ntfK7UGuj-86" value="custom&amp;nbsp;&lt;div&gt;instructions&lt;/div&gt;" style="rounded=0;whiteSpace=wrap;html=1;" parent="1" vertex="1">
          <mxGeometry x="263" y="390" width="72" height="30" as="geometry" />
        </mxCell>
      </root>
    </mxGraphModel>
  </diagram>
  <diagram id="BXZ44aPRAGuR7rQvakwj" name="Seite-2">
    <mxGraphModel dx="1823" dy="715" grid="1" gridSize="10" guides="1" tooltips="1" connect="1" arrows="1" fold="1" page="1" pageScale="1" pageWidth="827" pageHeight="1169" math="0" shadow="0">
      <root>
        <mxCell id="0" />
        <mxCell id="1" parent="0" />
        <mxCell id="N6gKC-X8Ik6-MvaNtXX--1" value="" style="endArrow=none;html=1;rounded=0;" edge="1" parent="1">
          <mxGeometry width="50" height="50" relative="1" as="geometry">
            <mxPoint x="440" y="240" as="sourcePoint" />
            <mxPoint x="440" y="400" as="targetPoint" />
          </mxGeometry>
        </mxCell>
        <mxCell id="N6gKC-X8Ik6-MvaNtXX--2" value="Single port RAM" style="text;html=1;align=center;verticalAlign=middle;whiteSpace=wrap;rounded=0;" vertex="1" parent="1">
          <mxGeometry x="440" y="240" width="100" height="30" as="geometry" />
        </mxCell>
        <mxCell id="N6gKC-X8Ik6-MvaNtXX--3" value="" style="endArrow=none;html=1;rounded=0;" edge="1" parent="1">
          <mxGeometry width="50" height="50" relative="1" as="geometry">
            <mxPoint x="440" y="480" as="sourcePoint" />
            <mxPoint x="440" y="710" as="targetPoint" />
          </mxGeometry>
        </mxCell>
        <mxCell id="N6gKC-X8Ik6-MvaNtXX--4" value="CPU" style="text;html=1;align=center;verticalAlign=middle;whiteSpace=wrap;rounded=0;" vertex="1" parent="1">
          <mxGeometry x="440" y="480" width="100" height="30" as="geometry" />
        </mxCell>
        <mxCell id="N6gKC-X8Ik6-MvaNtXX--5" value="" style="endArrow=classic;html=1;rounded=0;strokeWidth=3;" edge="1" parent="1">
          <mxGeometry width="50" height="50" relative="1" as="geometry">
            <mxPoint x="440" y="520" as="sourcePoint" />
            <mxPoint x="440" y="360" as="targetPoint" />
            <Array as="points">
              <mxPoint x="400" y="520" />
              <mxPoint x="400" y="360" />
            </Array>
          </mxGeometry>
        </mxCell>
        <mxCell id="N6gKC-X8Ik6-MvaNtXX--6" value="addr_spram [11:0]" style="edgeLabel;html=1;align=center;verticalAlign=middle;resizable=0;points=[];" vertex="1" connectable="0" parent="N6gKC-X8Ik6-MvaNtXX--5">
          <mxGeometry x="0.0504" relative="1" as="geometry">
            <mxPoint as="offset" />
          </mxGeometry>
        </mxCell>
        <mxCell id="N6gKC-X8Ik6-MvaNtXX--7" value="" style="endArrow=classic;html=1;rounded=0;strokeWidth=3;" edge="1" parent="1">
          <mxGeometry width="50" height="50" relative="1" as="geometry">
            <mxPoint x="440" y="540" as="sourcePoint" />
            <mxPoint x="440" y="340" as="targetPoint" />
            <Array as="points">
              <mxPoint x="340" y="540" />
              <mxPoint x="340" y="340" />
            </Array>
          </mxGeometry>
        </mxCell>
        <mxCell id="N6gKC-X8Ik6-MvaNtXX--8" value="data_o [8:0]" style="edgeLabel;html=1;align=center;verticalAlign=middle;resizable=0;points=[];" vertex="1" connectable="0" parent="N6gKC-X8Ik6-MvaNtXX--7">
          <mxGeometry x="0.2408" relative="1" as="geometry">
            <mxPoint as="offset" />
          </mxGeometry>
        </mxCell>
        <mxCell id="N6gKC-X8Ik6-MvaNtXX--9" value="" style="endArrow=classic;html=1;rounded=0;strokeWidth=3;" edge="1" parent="1">
          <mxGeometry width="50" height="50" relative="1" as="geometry">
            <mxPoint x="440" y="320" as="sourcePoint" />
            <mxPoint x="440" y="560" as="targetPoint" />
            <Array as="points">
              <mxPoint x="290" y="320" />
              <mxPoint x="290" y="560" />
            </Array>
          </mxGeometry>
        </mxCell>
        <mxCell id="N6gKC-X8Ik6-MvaNtXX--10" value="data_i [8:0]" style="edgeLabel;html=1;align=center;verticalAlign=middle;resizable=0;points=[];" vertex="1" connectable="0" parent="N6gKC-X8Ik6-MvaNtXX--9">
          <mxGeometry x="0.1062" y="1" relative="1" as="geometry">
            <mxPoint as="offset" />
          </mxGeometry>
        </mxCell>
        <mxCell id="N6gKC-X8Ik6-MvaNtXX--11" value="" style="endArrow=classic;html=1;rounded=0;" edge="1" parent="1">
          <mxGeometry width="50" height="50" relative="1" as="geometry">
            <mxPoint x="440" y="590" as="sourcePoint" />
            <mxPoint x="440" y="290" as="targetPoint" />
            <Array as="points">
              <mxPoint x="240" y="590" />
              <mxPoint x="240" y="290" />
            </Array>
          </mxGeometry>
        </mxCell>
        <mxCell id="N6gKC-X8Ik6-MvaNtXX--12" value="rw" style="edgeLabel;html=1;align=center;verticalAlign=middle;resizable=0;points=[];" vertex="1" connectable="0" parent="N6gKC-X8Ik6-MvaNtXX--11">
          <mxGeometry x="0.1496" y="-1" relative="1" as="geometry">
            <mxPoint as="offset" />
          </mxGeometry>
        </mxCell>
        <mxCell id="N6gKC-X8Ik6-MvaNtXX--13" value="" style="endArrow=none;html=1;rounded=0;" edge="1" parent="1">
          <mxGeometry width="50" height="50" relative="1" as="geometry">
            <mxPoint x="440" y="160" as="sourcePoint" />
            <mxPoint x="120" y="160" as="targetPoint" />
          </mxGeometry>
        </mxCell>
        <mxCell id="N6gKC-X8Ik6-MvaNtXX--14" value="SPI Controller" style="text;html=1;align=center;verticalAlign=middle;whiteSpace=wrap;rounded=0;" vertex="1" parent="1">
          <mxGeometry x="120" y="130" width="60" height="30" as="geometry" />
        </mxCell>
        <mxCell id="N6gKC-X8Ik6-MvaNtXX--16" value="" style="endArrow=classic;html=1;rounded=0;" edge="1" parent="1">
          <mxGeometry width="50" height="50" relative="1" as="geometry">
            <mxPoint x="440" y="610" as="sourcePoint" />
            <mxPoint x="200" y="160" as="targetPoint" />
            <Array as="points">
              <mxPoint x="200" y="610" />
            </Array>
          </mxGeometry>
        </mxCell>
        <mxCell id="N6gKC-X8Ik6-MvaNtXX--17" value="mode" style="edgeLabel;html=1;align=center;verticalAlign=middle;resizable=0;points=[];" vertex="1" connectable="0" parent="N6gKC-X8Ik6-MvaNtXX--16">
          <mxGeometry x="0.627" y="3" relative="1" as="geometry">
            <mxPoint as="offset" />
          </mxGeometry>
        </mxCell>
        <mxCell id="N6gKC-X8Ik6-MvaNtXX--18" value="" style="endArrow=classic;html=1;rounded=0;entryX=0.75;entryY=1;entryDx=0;entryDy=0;" edge="1" parent="1" target="N6gKC-X8Ik6-MvaNtXX--14">
          <mxGeometry width="50" height="50" relative="1" as="geometry">
            <mxPoint x="440" y="630" as="sourcePoint" />
            <mxPoint x="440" y="420" as="targetPoint" />
            <Array as="points">
              <mxPoint x="165" y="630" />
            </Array>
          </mxGeometry>
        </mxCell>
        <mxCell id="N6gKC-X8Ik6-MvaNtXX--19" value="trigger_reconfig" style="edgeLabel;html=1;align=center;verticalAlign=middle;resizable=0;points=[];" vertex="1" connectable="0" parent="N6gKC-X8Ik6-MvaNtXX--18">
          <mxGeometry x="0.1968" y="-1" relative="1" as="geometry">
            <mxPoint x="-16" y="1" as="offset" />
          </mxGeometry>
        </mxCell>
        <mxCell id="N6gKC-X8Ik6-MvaNtXX--20" value="left pins tile&lt;div&gt;- 1 out&lt;/div&gt;&lt;div&gt;- 8 in&lt;/div&gt;" style="text;html=1;align=center;verticalAlign=middle;whiteSpace=wrap;rounded=0;" vertex="1" parent="1">
          <mxGeometry x="460" y="520" width="120" height="30" as="geometry" />
        </mxCell>
        <mxCell id="BL4QxcK8-Q_3k4cYV0km-1" value="" style="endArrow=none;html=1;rounded=0;entryX=0.75;entryY=0;entryDx=0;entryDy=0;" edge="1" parent="1" target="N6gKC-X8Ik6-MvaNtXX--2">
          <mxGeometry width="50" height="50" relative="1" as="geometry">
            <mxPoint x="440" y="240" as="sourcePoint" />
            <mxPoint x="470" y="210" as="targetPoint" />
          </mxGeometry>
        </mxCell>
        <mxCell id="BL4QxcK8-Q_3k4cYV0km-4" value="" style="endArrow=none;html=1;rounded=0;entryX=0.75;entryY=0;entryDx=0;entryDy=0;" edge="1" parent="1" target="N6gKC-X8Ik6-MvaNtXX--4">
          <mxGeometry width="50" height="50" relative="1" as="geometry">
            <mxPoint x="440" y="480" as="sourcePoint" />
            <mxPoint x="470" y="450" as="targetPoint" />
          </mxGeometry>
        </mxCell>
        <mxCell id="BL4QxcK8-Q_3k4cYV0km-5" value="" style="endArrow=classic;html=1;rounded=0;strokeWidth=2;endFill=1;" edge="1" parent="1">
          <mxGeometry width="50" height="50" relative="1" as="geometry">
            <mxPoint x="340" y="340" as="sourcePoint" />
            <mxPoint x="340" y="160" as="targetPoint" />
          </mxGeometry>
        </mxCell>
        <mxCell id="BL4QxcK8-Q_3k4cYV0km-6" value="configure_slot [3:0]" style="edgeLabel;html=1;align=center;verticalAlign=middle;resizable=0;points=[];" vertex="1" connectable="0" parent="BL4QxcK8-Q_3k4cYV0km-5">
          <mxGeometry x="0.4148" relative="1" as="geometry">
            <mxPoint as="offset" />
          </mxGeometry>
        </mxCell>
        <mxCell id="BL4QxcK8-Q_3k4cYV0km-7" value="" style="endArrow=classic;html=1;rounded=0;fillColor=#f8cecc;strokeColor=#b85450;" edge="1" parent="1">
          <mxGeometry width="50" height="50" relative="1" as="geometry">
            <mxPoint x="40" y="670" as="sourcePoint" />
            <mxPoint x="440" y="670" as="targetPoint" />
          </mxGeometry>
        </mxCell>
        <mxCell id="BL4QxcK8-Q_3k4cYV0km-8" value="fpga_busy ???" style="edgeLabel;html=1;align=center;verticalAlign=middle;resizable=0;points=[];" vertex="1" connectable="0" parent="BL4QxcK8-Q_3k4cYV0km-7">
          <mxGeometry x="0.2767" y="1" relative="1" as="geometry">
            <mxPoint x="-15" y="11" as="offset" />
          </mxGeometry>
        </mxCell>
        <mxCell id="BL4QxcK8-Q_3k4cYV0km-9" value="" style="endArrow=none;html=1;rounded=0;" edge="1" parent="1">
          <mxGeometry width="50" height="50" relative="1" as="geometry">
            <mxPoint x="-40" y="510" as="sourcePoint" />
            <mxPoint x="-40" y="260" as="targetPoint" />
          </mxGeometry>
        </mxCell>
        <mxCell id="BL4QxcK8-Q_3k4cYV0km-11" value="" style="endArrow=none;html=1;rounded=0;entryX=0.75;entryY=0;entryDx=0;entryDy=0;" edge="1" parent="1">
          <mxGeometry width="50" height="50" relative="1" as="geometry">
            <mxPoint x="-114" y="260" as="sourcePoint" />
            <mxPoint x="-39" y="260" as="targetPoint" />
          </mxGeometry>
        </mxCell>
        <mxCell id="BL4QxcK8-Q_3k4cYV0km-12" value="Custom Instruction" style="text;html=1;align=center;verticalAlign=middle;whiteSpace=wrap;rounded=0;" vertex="1" parent="1">
          <mxGeometry x="-150" y="260" width="110" height="30" as="geometry" />
        </mxCell>
        <mxCell id="BL4QxcK8-Q_3k4cYV0km-13" value="" style="endArrow=classic;html=1;rounded=0;strokeWidth=3;" edge="1" parent="1">
          <mxGeometry width="50" height="50" relative="1" as="geometry">
            <mxPoint x="290" y="320" as="sourcePoint" />
            <mxPoint x="-40" y="320" as="targetPoint" />
          </mxGeometry>
        </mxCell>
      </root>
    </mxGraphModel>
  </diagram>
</mxfile>
